<?xml version="1.0" encoding="UTF-8" standalone="no"?>
<!DOCTYPE svg PUBLIC "-//W3C//DTD SVG 20010904//EN"
              "http://www.w3.org/TR/2001/REC-SVG-20010904/DTD/svg10.dtd">

<svg xmlns="http://www.w3.org/2000/svg"
     width="22.575mm" height="22.575mm"
     viewBox="0 0 64 64">
  <path id="Facebook"
        fill="none" stroke="black" stroke-width="1"
        d="M 34.04,63.96
           C 34.04,63.96 44.03,64.03 44.03,64.03
             44.03,64.03 44.04,38.96 44.04,38.96
             44.04,38.96 51.97,38.96 51.97,38.96
             51.97,38.96 53.19,31.92 53.40,30.00
             53.40,30.00 44.00,30.04 44.00,30.04
             43.99,27.96 44.00,23.94 44.00,21.71
             44.32,19.34 45.37,18.89 47.00,18.97
             49.80,18.90 50.31,18.89 54.04,18.96
             54.04,15.49 53.97,9.96 53.97,9.96
             53.97,9.96 42.00,9.97 42.00,9.97
             40.02,10.41 38.67,11.47 36.67,13.77
             35.07,16.63 34.67,17.26 33.97,20.77
             33.97,20.77 33.96,29.88 33.96,29.88
             33.96,29.88 25.97,29.96 25.97,29.96
             25.97,29.96 25.97,38.89 25.97,38.89
             25.97,38.89 33.97,38.96 33.97,38.96
             33.97,38.96 34.04,63.96 34.04,63.96 Z" />
</svg>
