<?xml version="1.0" encoding="UTF-8" standalone="no"?>
<!DOCTYPE svg PUBLIC "-//W3C//DTD SVG 20010904//EN"
              "http://www.w3.org/TR/2001/REC-SVG-20010904/DTD/svg10.dtd">

<svg xmlns="http://www.w3.org/2000/svg"
     width="16.9342mm" height="16.9342mm"
     viewBox="0 0 96 96">
  <path id="Selection"
        fill="none" stroke="black" stroke-width="1"
        d="M 0.00,0.00
           C 0.00,0.00 0.00,96.00 0.00,96.00
             0.00,96.00 96.00,96.00 96.00,96.00
             96.00,96.00 96.00,0.00 96.00,0.00
             96.00,0.00 0.00,0.00 0.00,0.00 Z
           M 19.00,56.00
           C 19.00,56.00 15.00,56.00 15.00,56.00
             13.68,52.26 13.51,51.87 10.00,50.00
             10.00,50.00 10.00,56.00 10.00,56.00
             10.00,56.00 7.00,56.00 7.00,56.00
             7.00,56.00 7.00,40.03 7.00,40.03
             7.00,40.03 12.00,40.03 12.00,40.03
             21.20,40.86 17.52,47.49 17.43,50.00
             17.35,52.26 18.21,53.96 19.00,56.00 Z
           M 32.00,40.00
           C 32.00,40.00 32.00,43.00 32.00,43.00
             32.00,43.00 25.00,43.00 25.00,43.00
             25.00,43.00 25.00,47.00 25.00,47.00
             25.00,47.00 32.00,47.00 32.00,47.00
             32.00,47.00 32.00,49.00 32.00,49.00
             32.00,49.00 25.00,49.00 25.00,49.00
             25.00,49.00 25.00,54.00 25.00,54.00
             25.00,54.00 32.00,54.00 32.00,54.00
             32.00,54.00 32.00,56.00 32.00,56.00
             32.00,56.00 22.00,56.00 22.00,56.00
             22.00,56.00 22.00,40.00 22.00,40.00
             22.00,40.00 32.00,40.00 32.00,40.00 Z
           M 46.00,45.00
           C 46.00,45.00 39.00,43.00 39.00,43.00
             41.96,48.00 45.06,46.91 46.16,50.22
             47.39,53.95 43.54,57.07 40.02,56.46
             36.69,55.89 35.88,53.82 35.00,51.00
             35.00,51.00 44.00,53.00 44.00,53.00
             44.00,53.00 44.00,51.00 44.00,51.00
             44.00,51.00 38.26,48.47 38.26,48.47
             29.84,42.90 44.19,34.48 46.00,45.00 Z
           M 52.00,40.00
           C 52.00,42.47 51.15,51.76 54.26,52.38
             58.87,53.30 58.00,42.46 58.00,40.00
             58.00,40.00 61.00,40.00 61.00,40.00
             61.00,43.34 61.50,51.07 59.83,53.72
             57.46,57.47 51.50,57.48 49.60,52.89
             48.70,50.74 49.00,42.76 49.00,40.00
             49.00,40.00 52.00,40.00 52.00,40.00 Z
           M 66.00,40.00
           C 66.00,40.00 68.00,48.00 68.00,48.00
             70.29,43.90 70.42,41.56 75.00,40.00
             75.00,40.00 75.00,56.00 75.00,56.00
             75.00,56.00 72.00,56.00 72.00,56.00
             72.00,56.00 72.00,49.00 72.00,49.00
             72.00,49.00 70.00,53.00 70.00,53.00
             70.00,53.00 68.00,53.00 68.00,53.00
             68.00,53.00 66.00,47.00 66.00,47.00
             66.00,47.00 65.00,56.00 65.00,56.00
             65.00,56.00 63.00,56.00 63.00,56.00
             63.00,56.00 63.00,40.00 63.00,40.00
             63.00,40.00 66.00,40.00 66.00,40.00 Z
           M 88.00,40.00
           C 88.00,40.00 88.00,43.00 88.00,43.00
             88.00,43.00 81.00,43.00 81.00,43.00
             81.00,43.00 81.00,47.00 81.00,47.00
             81.00,47.00 88.00,47.00 88.00,47.00
             88.00,47.00 88.00,49.00 88.00,49.00
             88.00,49.00 81.00,49.00 81.00,49.00
             81.00,49.00 81.00,54.00 81.00,54.00
             81.00,54.00 88.00,54.00 88.00,54.00
             88.00,54.00 88.00,56.00 88.00,56.00
             88.00,56.00 78.00,56.00 78.00,56.00
             78.00,56.00 78.00,40.00 78.00,40.00
             78.00,40.00 88.00,40.00 88.00,40.00 Z
           M 10.00,43.00
           C 10.00,43.00 10.00,48.00 10.00,48.00
             10.00,48.00 16.00,46.00 16.00,46.00
             16.00,46.00 16.00,44.00 16.00,44.00
             16.00,44.00 10.00,43.00 10.00,43.00 Z" />
</svg>
